<mxfile host="app.diagrams.net" modified="2022-12-04T09:56:11.292Z" agent="5.0 (Windows NT 10.0; Win64; x64) AppleWebKit/537.36 (KHTML, like Gecko) Chrome/108.0.0.0 Safari/537.36" etag="f6nVUGaQNQcbHueGE0yv" version="20.6.0" type="github">
  <diagram id="prtHgNgQTEPvFCAcTncT" name="Page-1">
    <mxGraphModel dx="1422" dy="762" grid="1" gridSize="10" guides="1" tooltips="1" connect="1" arrows="1" fold="1" page="1" pageScale="1" pageWidth="1169" pageHeight="1654" math="0" shadow="0">
      <root>
        <mxCell id="0" />
        <mxCell id="1" parent="0" />
        <mxCell id="po3ppUP_qcdHQZ_Q7k7u-3" value="" style="edgeStyle=orthogonalEdgeStyle;rounded=0;orthogonalLoop=1;jettySize=auto;html=1;" edge="1" parent="1" source="po3ppUP_qcdHQZ_Q7k7u-1" target="po3ppUP_qcdHQZ_Q7k7u-2">
          <mxGeometry relative="1" as="geometry" />
        </mxCell>
        <mxCell id="po3ppUP_qcdHQZ_Q7k7u-5" value="" style="edgeStyle=orthogonalEdgeStyle;rounded=0;orthogonalLoop=1;jettySize=auto;html=1;" edge="1" parent="1" source="po3ppUP_qcdHQZ_Q7k7u-1" target="po3ppUP_qcdHQZ_Q7k7u-4">
          <mxGeometry relative="1" as="geometry" />
        </mxCell>
        <mxCell id="po3ppUP_qcdHQZ_Q7k7u-7" value="" style="edgeStyle=orthogonalEdgeStyle;rounded=0;orthogonalLoop=1;jettySize=auto;html=1;" edge="1" parent="1" source="po3ppUP_qcdHQZ_Q7k7u-1" target="po3ppUP_qcdHQZ_Q7k7u-6">
          <mxGeometry relative="1" as="geometry" />
        </mxCell>
        <mxCell id="po3ppUP_qcdHQZ_Q7k7u-9" value="" style="edgeStyle=orthogonalEdgeStyle;rounded=0;orthogonalLoop=1;jettySize=auto;html=1;" edge="1" parent="1" source="po3ppUP_qcdHQZ_Q7k7u-1" target="po3ppUP_qcdHQZ_Q7k7u-8">
          <mxGeometry relative="1" as="geometry" />
        </mxCell>
        <mxCell id="po3ppUP_qcdHQZ_Q7k7u-11" value="" style="edgeStyle=orthogonalEdgeStyle;rounded=0;orthogonalLoop=1;jettySize=auto;html=1;startArrow=none;" edge="1" parent="1" source="po3ppUP_qcdHQZ_Q7k7u-2" target="po3ppUP_qcdHQZ_Q7k7u-10">
          <mxGeometry relative="1" as="geometry" />
        </mxCell>
        <mxCell id="po3ppUP_qcdHQZ_Q7k7u-13" value="" style="edgeStyle=orthogonalEdgeStyle;rounded=0;orthogonalLoop=1;jettySize=auto;html=1;" edge="1" parent="1" source="po3ppUP_qcdHQZ_Q7k7u-1" target="po3ppUP_qcdHQZ_Q7k7u-12">
          <mxGeometry relative="1" as="geometry" />
        </mxCell>
        <mxCell id="po3ppUP_qcdHQZ_Q7k7u-18" value="" style="edgeStyle=orthogonalEdgeStyle;rounded=0;orthogonalLoop=1;jettySize=auto;html=1;" edge="1" parent="1" source="po3ppUP_qcdHQZ_Q7k7u-1" target="po3ppUP_qcdHQZ_Q7k7u-17">
          <mxGeometry relative="1" as="geometry" />
        </mxCell>
        <mxCell id="po3ppUP_qcdHQZ_Q7k7u-20" value="" style="edgeStyle=orthogonalEdgeStyle;rounded=0;orthogonalLoop=1;jettySize=auto;html=1;" edge="1" parent="1" source="po3ppUP_qcdHQZ_Q7k7u-1" target="po3ppUP_qcdHQZ_Q7k7u-19">
          <mxGeometry relative="1" as="geometry" />
        </mxCell>
        <mxCell id="po3ppUP_qcdHQZ_Q7k7u-22" value="" style="edgeStyle=orthogonalEdgeStyle;rounded=0;orthogonalLoop=1;jettySize=auto;html=1;" edge="1" parent="1" source="po3ppUP_qcdHQZ_Q7k7u-1" target="po3ppUP_qcdHQZ_Q7k7u-21">
          <mxGeometry relative="1" as="geometry" />
        </mxCell>
        <mxCell id="po3ppUP_qcdHQZ_Q7k7u-24" value="" style="edgeStyle=orthogonalEdgeStyle;rounded=0;orthogonalLoop=1;jettySize=auto;html=1;" edge="1" parent="1" source="po3ppUP_qcdHQZ_Q7k7u-1" target="po3ppUP_qcdHQZ_Q7k7u-23">
          <mxGeometry relative="1" as="geometry" />
        </mxCell>
        <mxCell id="po3ppUP_qcdHQZ_Q7k7u-26" value="" style="edgeStyle=orthogonalEdgeStyle;rounded=0;orthogonalLoop=1;jettySize=auto;html=1;" edge="1" parent="1" source="po3ppUP_qcdHQZ_Q7k7u-1" target="po3ppUP_qcdHQZ_Q7k7u-25">
          <mxGeometry relative="1" as="geometry" />
        </mxCell>
        <mxCell id="po3ppUP_qcdHQZ_Q7k7u-28" value="" style="edgeStyle=orthogonalEdgeStyle;rounded=0;orthogonalLoop=1;jettySize=auto;html=1;" edge="1" parent="1" source="po3ppUP_qcdHQZ_Q7k7u-1" target="po3ppUP_qcdHQZ_Q7k7u-27">
          <mxGeometry relative="1" as="geometry" />
        </mxCell>
        <mxCell id="po3ppUP_qcdHQZ_Q7k7u-30" value="" style="edgeStyle=orthogonalEdgeStyle;rounded=0;orthogonalLoop=1;jettySize=auto;html=1;" edge="1" parent="1" source="po3ppUP_qcdHQZ_Q7k7u-1" target="po3ppUP_qcdHQZ_Q7k7u-29">
          <mxGeometry relative="1" as="geometry" />
        </mxCell>
        <mxCell id="po3ppUP_qcdHQZ_Q7k7u-32" value="" style="edgeStyle=orthogonalEdgeStyle;rounded=0;orthogonalLoop=1;jettySize=auto;html=1;" edge="1" parent="1" source="po3ppUP_qcdHQZ_Q7k7u-1" target="po3ppUP_qcdHQZ_Q7k7u-31">
          <mxGeometry relative="1" as="geometry" />
        </mxCell>
        <mxCell id="po3ppUP_qcdHQZ_Q7k7u-1" value="main page" style="rounded=1;whiteSpace=wrap;html=1;fillColor=#d5e8d4;strokeColor=#82b366;" vertex="1" parent="1">
          <mxGeometry x="540" y="50" width="120" height="60" as="geometry" />
        </mxCell>
        <mxCell id="po3ppUP_qcdHQZ_Q7k7u-4" value="New Account" style="ellipse;whiteSpace=wrap;html=1;fillColor=#d5e8d4;strokeColor=#82b366;rounded=1;" vertex="1" parent="1">
          <mxGeometry x="210" y="170" width="100" height="50" as="geometry" />
        </mxCell>
        <mxCell id="po3ppUP_qcdHQZ_Q7k7u-6" value="Mini Statement" style="ellipse;whiteSpace=wrap;html=1;fillColor=#d5e8d4;strokeColor=#82b366;rounded=1;" vertex="1" parent="1">
          <mxGeometry x="900" y="170" width="100" height="50" as="geometry" />
        </mxCell>
        <mxCell id="po3ppUP_qcdHQZ_Q7k7u-8" value="Edit customer" style="ellipse;whiteSpace=wrap;html=1;fillColor=#d5e8d4;strokeColor=#82b366;rounded=1;" vertex="1" parent="1">
          <mxGeometry x="80" y="290" width="100" height="50" as="geometry" />
        </mxCell>
        <mxCell id="po3ppUP_qcdHQZ_Q7k7u-10" value="Delete customer" style="ellipse;whiteSpace=wrap;html=1;fillColor=#d5e8d4;strokeColor=#82b366;rounded=1;" vertex="1" parent="1">
          <mxGeometry x="80" y="390" width="100" height="55" as="geometry" />
        </mxCell>
        <mxCell id="po3ppUP_qcdHQZ_Q7k7u-12" value="Edit account" style="ellipse;whiteSpace=wrap;html=1;fillColor=#d5e8d4;strokeColor=#82b366;rounded=1;" vertex="1" parent="1">
          <mxGeometry x="210" y="280" width="100" height="50" as="geometry" />
        </mxCell>
        <mxCell id="po3ppUP_qcdHQZ_Q7k7u-17" value="Delete account" style="ellipse;whiteSpace=wrap;html=1;fillColor=#d5e8d4;strokeColor=#82b366;rounded=1;" vertex="1" parent="1">
          <mxGeometry x="210" y="390" width="100" height="50" as="geometry" />
        </mxCell>
        <mxCell id="po3ppUP_qcdHQZ_Q7k7u-19" value="Deposit" style="ellipse;whiteSpace=wrap;html=1;fillColor=#d5e8d4;strokeColor=#82b366;rounded=1;" vertex="1" parent="1">
          <mxGeometry x="320" y="168.75" width="100" height="50" as="geometry" />
        </mxCell>
        <mxCell id="po3ppUP_qcdHQZ_Q7k7u-21" value="Withdrawal" style="ellipse;whiteSpace=wrap;html=1;fillColor=#d5e8d4;strokeColor=#82b366;rounded=1;" vertex="1" parent="1">
          <mxGeometry x="430" y="171.25" width="100" height="50" as="geometry" />
        </mxCell>
        <mxCell id="po3ppUP_qcdHQZ_Q7k7u-23" value="Fund Transfer" style="ellipse;whiteSpace=wrap;html=1;fillColor=#d5e8d4;strokeColor=#82b366;rounded=1;" vertex="1" parent="1">
          <mxGeometry x="550" y="170" width="100" height="50" as="geometry" />
        </mxCell>
        <mxCell id="po3ppUP_qcdHQZ_Q7k7u-25" value="Change password" style="ellipse;whiteSpace=wrap;html=1;fillColor=#d5e8d4;strokeColor=#82b366;rounded=1;" vertex="1" parent="1">
          <mxGeometry x="680" y="168.75" width="100" height="52.5" as="geometry" />
        </mxCell>
        <mxCell id="po3ppUP_qcdHQZ_Q7k7u-27" value="Balance Enquiry" style="ellipse;whiteSpace=wrap;html=1;fillColor=#d5e8d4;strokeColor=#82b366;rounded=1;" vertex="1" parent="1">
          <mxGeometry x="790" y="170" width="100" height="50" as="geometry" />
        </mxCell>
        <mxCell id="po3ppUP_qcdHQZ_Q7k7u-29" value="Customised statement" style="ellipse;whiteSpace=wrap;html=1;fillColor=#d5e8d4;strokeColor=#82b366;rounded=1;" vertex="1" parent="1">
          <mxGeometry x="900" y="270" width="100" height="50" as="geometry" />
        </mxCell>
        <mxCell id="po3ppUP_qcdHQZ_Q7k7u-31" value="Log out" style="ellipse;whiteSpace=wrap;html=1;fillColor=#d5e8d4;strokeColor=#82b366;rounded=1;" vertex="1" parent="1">
          <mxGeometry x="1020" y="170" width="100" height="50" as="geometry" />
        </mxCell>
        <mxCell id="po3ppUP_qcdHQZ_Q7k7u-2" value="New customer" style="ellipse;whiteSpace=wrap;html=1;fillColor=#d5e8d4;strokeColor=#82b366;rounded=1;" vertex="1" parent="1">
          <mxGeometry x="80" y="168.75" width="100" height="53.75" as="geometry" />
        </mxCell>
        <mxCell id="po3ppUP_qcdHQZ_Q7k7u-33" value="" style="edgeStyle=orthogonalEdgeStyle;rounded=0;orthogonalLoop=1;jettySize=auto;html=1;endArrow=none;" edge="1" parent="1" source="po3ppUP_qcdHQZ_Q7k7u-1" target="po3ppUP_qcdHQZ_Q7k7u-2">
          <mxGeometry relative="1" as="geometry">
            <mxPoint x="540" y="80" as="sourcePoint" />
            <mxPoint x="110" y="400" as="targetPoint" />
          </mxGeometry>
        </mxCell>
      </root>
    </mxGraphModel>
  </diagram>
</mxfile>
